<?xml version="1.0" encoding="UTF-8" standalone="no"?>
<!DOCTYPE svg PUBLIC "-//W3C//DTD SVG 1.1//EN" "http://www.w3.org/Graphics/SVG/1.1/DTD/svg11.dtd">
<svg width="100%" height="100%" viewBox="0 0 500 500" version="1.1" xmlns="http://www.w3.org/2000/svg" xmlns:xlink="http://www.w3.org/1999/xlink" xml:space="preserve" xmlns:serif="http://www.serif.com/" style="fill-rule:evenodd;clip-rule:evenodd;stroke-linejoin:round;stroke-miterlimit:2;">
    <g transform="matrix(1,0,0,1,3.5,1.5)">
        <path d="M496,60.139L496,436.861C496,470.605 468.605,498 434.861,498L58.139,498C24.395,498 -3,470.605 -3,436.861L-3,60.139C-3,26.395 24.395,-1 58.139,-1L434.861,-1C468.605,-1 496,26.395 496,60.139Z" style="fill:rgb(40,57,255);"/>
    </g>
    <g transform="matrix(1.057112,0,0,1.057112,-13.701716,-18.414847)">
        <path d="M140.257,277.27C147.651,269.817 161.812,255.575 162.084,255.182C164.412,251.827 88.639,180.8 79.602,169.427C75.997,164.89 75.489,96.104 79.697,91.708C82.476,88.805 161.151,89.356 164.576,91.357C170.198,94.642 241.021,167.695 247.56,174.44C250.292,177.258 257.976,167.502 302.647,122.645C334.328,90.832 335.003,89.96 345.505,90.011C415.821,90.354 416.444,89.087 419.35,91.666C422.982,94.891 423.413,164.457 419.075,170.15C418.418,171.012 357.194,232.983 338.547,251.544C335.066,255.008 343.774,261.122 363.174,280.824C419.938,338.471 421.737,338.349 421.735,346.5C421.715,412.774 422.148,414.159 417.553,416.613C412.637,419.239 345.75,417.41 339.508,417.239C335.748,417.137 334.741,417.367 251.483,332.518C249.893,330.898 243.008,337.786 242.396,338.398C165.515,415.317 165.833,417.124 158.501,417.208C87.223,418.03 87.101,419.067 81.481,416.54C76.288,414.205 76.196,412.639 77.221,345.494C77.317,339.207 78.428,339.004 140.257,277.27ZM242.685,284.81C290.641,256.529 290.302,255.204 290.178,253.51C289.795,248.307 230.551,216.974 230.459,216.966C225.065,216.497 225.486,219.935 226.111,284.503C226.224,296.24 232.4,290.426 242.685,284.81Z" style="fill:rgb(255,255,255);"/>
    </g>
</svg>
