<?xml version="1.0" encoding="UTF-8" standalone="no"?>
<!DOCTYPE svg PUBLIC "-//W3C//DTD SVG 1.1//EN" "http://www.w3.org/Graphics/SVG/1.1/DTD/svg11.dtd">
<svg width="100%" height="100%" viewBox="0 0 1024 1024" version="1.1" xmlns="http://www.w3.org/2000/svg" xmlns:xlink="http://www.w3.org/1999/xlink" xml:space="preserve" xmlns:serif="http://www.serif.com/" style="fill-rule:evenodd;clip-rule:evenodd;stroke-linejoin:round;stroke-miterlimit:2;">
    <g transform="matrix(1,0,0,1,-1,0.5)">
        <path d="M1027,45.198L1027,977.802C1027,1003.851 1005.851,1025 979.802,1025L46.198,1025C20.149,1025 -1,1003.851 -1,977.802L-1,45.198C-1,19.149 20.149,-2 46.198,-2L979.802,-2C1005.851,-2 1027,19.149 1027,45.198Z"/>
    </g>
    <g id="Background" transform="matrix(1.151866,0,0,1.151866,52.304153,48.030822)">
        <path d="M435.348,444.352C443.323,436.104 533.046,343.313 535.689,341.872C537.8,340.721 627.515,341.448 635.499,341.512C639.02,341.541 637.814,351.202 637.805,356.5C637.601,478.375 638.384,633.113 637.198,634.166C636.3,634.964 558.377,634.518 557.534,634.405C554.876,634.047 556.801,438.894 556.422,429.526C556.248,425.207 544.68,439.734 543.838,440.791C543.396,441.346 406.069,588.754 401.396,593.352C398.459,596.243 244.934,428.067 243.605,428.818C242.245,429.588 243.405,626.735 242.964,632.559C242.744,635.459 239.683,634.448 179.5,634.557C166.93,634.58 160.839,639.083 160.89,626.499C161.074,581.153 160.79,344.476 160.98,342.655C161.319,339.423 254.379,341.347 262.5,341.515C264.424,341.555 264.854,341.564 280.39,357.604C346.555,425.911 396.792,476.766 399.587,479.367C401.003,480.684 401.127,478.964 435.348,444.352Z" style="fill:rgb(253,253,253);"/>
        <path d="M242.866,244.633C242.934,248.366 243.504,321.522 242.515,322.514C241.113,323.92 198.444,323.046 176.5,323.205C163.991,323.295 161.692,326.286 160.899,321.442C160.85,321.141 160.891,166.933 160.894,153.497C160.897,143.553 157.614,139.015 167.508,138.981C174.151,138.958 248.601,138.705 250.545,139.396C251.221,139.637 278.432,166.637 310.892,200.13C317.934,207.397 396.764,288.739 399.632,290.266C402.191,291.629 497.92,190.355 511.108,178.104C524.462,165.699 545.446,138.99 553.507,138.96C560.154,138.936 634.587,138.663 636.599,139.26C638.464,139.814 638.858,322.775 636.389,323.141C635.923,323.21 560.059,323.53 557.341,322.809C554.535,322.065 557.845,243.904 555.531,243.842C554.667,243.819 555.15,244.645 483.65,318.643C401.477,403.685 400.99,406.174 398.845,404.121C398.84,404.116 283.455,284.889 276.073,276.919C246.86,245.374 246.531,245.178 242.866,244.633Z" style="fill:rgb(253,253,253);"/>
        <path d="M712.866,630.494C712.7,633.444 713.474,634.587 710.504,634.61C665.726,634.961 663.942,637.036 662.887,633.374C662.86,633.284 662.288,611.704 663.749,610.922C666.905,609.232 667.21,611.089 708.5,610.465C708.843,610.459 712.289,610.407 712.686,611.394C713.138,612.519 712.889,628.966 712.866,630.494Z" style="fill:rgb(0,200,229);"/>
        <path d="M755.502,11.152C727.523,11.243 727.521,11.033 727.273,10.94C725.758,10.37 725.998,6.127 726.54,5.533C727.94,3.997 794.662,5.074 794.69,5.08C795.806,5.34 795.818,19.263 795.819,20.5C795.862,72.124 796.602,74.634 792.5,74.512C788.355,74.389 789.606,71.506 789.569,13.498C789.567,10.262 783.782,11.121 755.502,11.152Z" style="fill:rgb(245,245,245);"/>
        <path d="M2.084,20.5C2.087,19.247 2.12,5.055 3.573,4.9C12.91,3.904 64.208,4.755 69.48,4.843C71.646,4.879 72.048,6.75 71.696,9.535C71.106,14.197 8.324,7.697 8.268,13.484C7.731,69.248 12.412,75.192 3.514,74.443C1.746,74.295 2.105,73.254 2.084,20.5Z" style="fill:rgb(246,246,246);"/>
        <path d="M787.496,800.932C726.964,801.311 726.353,800.697 726.233,799.573C725.445,792.12 730.573,795.733 787.532,794.864C791.458,794.804 788.852,756.153 789.562,733.507C789.66,730.401 794.965,731.631 795.228,731.83C797.469,733.525 795.94,794.146 795.804,799.563C795.762,801.225 794.987,800.508 787.496,800.932Z" style="fill:rgb(244,244,244);"/>
        <path d="M2.082,741.5C2.264,734.566 -0.362,731.22 6.499,731.505C10.244,731.661 7.461,790.073 8.304,793.556C9.078,796.755 69.757,793.457 71.376,795.589C76.89,802.849 67.799,800.509 6.499,801.174C1.033,801.233 2.101,799.071 2.097,793.498C2.092,776.166 2.087,758.833 2.082,741.5Z" style="fill:rgb(245,245,245);"/>
    </g>
</svg>
